<?xml version="1.0" encoding="UTF-8" standalone="no"?>
<!-- Created with Inkscape (http://www.inkscape.org/) -->

<svg
   xmlns:dc="http://purl.org/dc/elements/1.1/"
   xmlns:cc="http://creativecommons.org/ns#"
   xmlns:rdf="http://www.w3.org/1999/02/22-rdf-syntax-ns#"
   xmlns:svg="http://www.w3.org/2000/svg"
   xmlns="http://www.w3.org/2000/svg"
   xmlns:sodipodi="http://sodipodi.sourceforge.net/DTD/sodipodi-0.dtd"
   xmlns:inkscape="http://www.inkscape.org/namespaces/inkscape"
   width="64"
   height="64"
   viewBox="0 0 16.933333 16.933333"
   version="1.1"
   id="svg29"
   inkscape:version="0.92.1 r15371"
   sodipodi:docname="edit.svg"
   inkscape:export-filename="D:\DOC\Fotojaba\icons\ipinformer\edit.svg.png"
   inkscape:export-xdpi="48.000004"
   inkscape:export-ydpi="48.000004">
  <defs
     id="defs23" />
  <sodipodi:namedview
     id="base"
     pagecolor="#ffffff"
     bordercolor="#666666"
     borderopacity="1.0"
     inkscape:pageopacity="0.0"
     inkscape:pageshadow="2"
     inkscape:zoom="5.6"
     inkscape:cx="5.7581764"
     inkscape:cy="38.35416"
     inkscape:document-units="mm"
     inkscape:current-layer="layer1"
     showgrid="false"
     units="px"
     inkscape:window-width="1024"
     inkscape:window-height="720"
     inkscape:window-x="-4"
     inkscape:window-y="-4"
     inkscape:window-maximized="1" />
  <metadata
     id="metadata26">
    <rdf:RDF>
      <cc:Work
         rdf:about="">
        <dc:format>image/svg+xml</dc:format>
        <dc:type
           rdf:resource="http://purl.org/dc/dcmitype/StillImage" />
        <dc:title></dc:title>
      </cc:Work>
    </rdf:RDF>
  </metadata>
  <g
     inkscape:label="Layer 1"
     inkscape:groupmode="layer"
     id="layer1"
     transform="translate(0,-280.06669)">
    <path
       style="fill:#000000;stroke-width:0.99999994"
       d="m 982.63281,754.4043 c -1.76583,0 -14.77539,13.16076 -14.77539,14.94726 0,0.82598 3.02488,4.55103 6.72266,8.27735 3.69774,3.72631 7.29776,6.77539 8,6.77539 0.82295,0 1.27734,-1.42187 1.27734,-4 v -4 h 7 7 v -7 -7 h -7 -7 v -4 c 0,-2.48962 -0.46224,-4 -1.22461,-4 z m -1.29492,5.60156 c 0.48486,-0.0959 0.51953,0.53312 0.51953,1.68164 0,2.69692 0.0517,2.7168 7,2.7168 h 7 v 5 5 h -6.9375 -6.93554 l -0.31446,3.04687 -0.3125,3.04688 -5.25195,-5.33008 -5.25195,-5.33008 5.50195,-5.43359 c 2.99119,-2.95406 4.35903,-4.27513 4.98242,-4.39844 z"
       transform="matrix(0.26458333,0,0,0.26458333,0,-215)"
       id="path12"
       inkscape:connector-curvature="0" />
    <g
       id="g32"
       transform="matrix(1.0085621,0,0,1.0143574,-0.143889,-3.8315687)">
      <path
         inkscape:connector-curvature="0"
         id="path23"
         d="m 0.30105527,296.44905 c -0.0276021,-0.0275 -0.0501907,-0.1434 -0.0501907,-0.25768 0,-0.17009 0.52415029,-2.55239 1.08455963,-4.92942 l 0.1139585,-0.48337 5.1790822,-5.15223 c 5.5088951,-5.48033 5.5017051,-5.47399 6.3129631,-5.56923 0.751293,-0.0881 0.919692,0.0123 2.30936,1.37915 1.44726,1.42341 1.604892,1.66161 1.543701,2.33262 -0.08247,0.90436 0.06248,0.73921 -5.565664,6.34141 -2.860706,2.84754 -5.2729047,5.19248 -5.3604393,5.21102 -0.087535,0.0185 -1.2980897,0.29108 -2.6901253,0.60566 -2.52012662,0.56952 -2.7817377,0.617 -2.87720513,0.52207 z m 2.60476503,-1.0464 c 1.0035701,-0.23241 1.9008994,-0.43846 1.9940696,-0.45789 0.093163,-0.0194 0.1693965,-0.058 0.1693965,-0.0854 0,-0.0275 -0.2117474,-0.15418 -0.470549,-0.28142 -1.0272095,-0.50506 -1.8743899,-1.3307 -2.4068878,-2.3457 -0.1358558,-0.25895 -0.2793725,-0.47445 -0.3189271,-0.47889 -0.03956,-0.004 -0.097616,0.10986 -0.1290344,0.25396 -0.03142,0.14412 -0.2277381,1.01595 -0.4362755,1.93743 -0.40589788,1.79358 -0.41988872,1.88047 -0.3028102,1.88047 0.041996,0 0.8974501,-0.19015 1.9010179,-0.42256 z m 6.4169662,-4.17193 c 1.7599965,-1.74467 3.1999985,-3.2191 3.1999985,-3.27649 0,-0.0574 -0.353506,-0.45465 -0.785565,-0.8828 l -0.785562,-0.77844 -1.7930436,1.74397 c -2.2173,2.15661 -5.293936,5.27895 -5.293936,5.3726 0,0.10461 0.6148511,0.52271 1.0269112,0.69834 0.3919389,0.16705 0.7924699,0.27545 1.0620676,0.28744 0.1268567,0.005 0.9689874,-0.78537 3.3691293,-3.16462 z m -2.3382742,-1.84052 3.5302387,-3.51546 -0.299432,-0.32115 c -0.164685,-0.17664 -0.5439375,-0.55505 -0.8427818,-0.84091 l -0.5433522,-0.51975 -3.2351307,3.21355 c -3.6138094,3.58973 -3.3732938,3.26665 -3.0783352,4.1351 0.1788299,0.52654 0.6951746,1.36406 0.8409634,1.36406 0.053668,0 1.6861975,-1.58194 3.6278298,-3.51544 z m 6.6473587,-2.43989 c 0.259579,-0.26979 0.472082,-0.53086 0.472238,-0.58018 3.94e-4,-0.12756 -3.569032,-3.64552 -3.698859,-3.64552 -0.05912,0 -0.341835,0.2348 -0.6282499,0.52178 l -0.5207527,0.52181 1.8369026,1.8363 c 1.010297,1.00998 1.888623,1.83632 1.951835,1.83632 0.06321,0 0.327312,-0.22074 0.586886,-0.49051 z m 1.830983,-1.81384 c 0.559555,-0.60753 0.745185,-0.97601 0.747381,-1.4836 0.0022,-0.49688 -0.13545,-0.68158 -1.476897,-1.98242 -1.143374,-1.10875 -1.267292,-1.17664 -1.893347,-1.03713 -0.479954,0.1069 -0.710069,0.26469 -1.407714,0.96501 l -0.601136,0.60344 1.875868,1.86634 1.875866,1.86635 0.208384,-0.14754 c 0.114611,-0.0811 0.416829,-0.37385 0.671595,-0.65045 z"
         style="fill:#000000;stroke:none;stroke-width:0.28374401;stroke-opacity:1" />
      <path
         transform="matrix(0.26458333,0,0,0.26458333,0,280.06669)"
         inkscape:connector-curvature="0"
         id="path16"
         d="M 48.075356,15.016598 41.054944,7.9944986 43.477576,5.6549332 c 1.627625,-1.5718171 2.739972,-2.4948252 3.389665,-2.8126901 1.081479,-0.5291184 3.00562,-0.921044 3.684864,-0.7505647 0.959098,0.2407182 2.371746,1.4254699 6.000447,5.0324214 4.272833,4.2472242 4.58048,4.6885532 4.568801,6.5541082 -0.0092,1.473727 -0.529946,2.712021 -1.824655,4.339104 -0.878938,1.104576 -3.836826,4.021385 -4.078021,4.021385 -0.0676,0 -3.282095,-3.159945 -7.143321,-7.022099 z"
         style="fill:#333333;stroke:none;stroke-width:0.67491567;stroke-opacity:1" />
      <path
         transform="matrix(0.26458333,0,0,0.26458333,0,280.06669)"
         inkscape:connector-curvature="0"
         id="path18"
         d="M 45.611726,24.378116 C 43.659238,22.52194 40.494784,19.422892 38.579605,17.491344 l -3.482143,-3.511907 1.931485,-1.863227 c 1.062316,-1.024775 2.074312,-1.863228 2.24888,-1.863228 0.535254,0 13.628071,12.75833 13.905358,13.550114 0.108804,0.310684 -3.458697,3.949886 -3.872063,3.949886 -0.08218,0 -1.746909,-1.518689 -3.699396,-3.374866 z"
         style="fill:#333333;stroke:none;stroke-width:0.67491567;stroke-opacity:1" />
      <path
         transform="matrix(0.26458333,0,0,0.26458333,0,280.06669)"
         inkscape:connector-curvature="0"
         id="path20"
         d="m 20.454605,53.668727 c -2.367089,-0.682253 -5.625,-2.586018 -5.625,-3.286977 0,-0.264855 4.001263,-4.369469 13.243537,-13.585617 l 13.243538,-13.206098 2.917177,2.959426 c 1.604446,1.627684 2.917177,3.097417 2.917177,3.266074 0,0.346859 -18.492781,18.88343 -22.043859,22.09606 -2.593895,2.346673 -2.599631,2.348839 -4.65257,1.757132 z"
         style="fill:#333333;stroke:none;stroke-width:0.67491567;stroke-opacity:1" />
      <path
         transform="matrix(0.26458333,0,0,0.26458333,0,280.06669)"
         inkscape:connector-curvature="0"
         id="path22"
         d="M 11.893404,47.626256 C 10.326029,45.493656 8.8468643,41.903316 9.1295544,40.917632 9.5598331,39.41734 11.006056,37.867522 23.315683,25.715344 l 10.113424,-9.984066 3.107719,3.103913 3.107718,3.103912 -0.577112,0.60711 C 37.385068,24.316024 13.468443,47.807818 13.034167,48.117049 L 12.5221,48.481674 Z"
         style="fill:#333333;stroke:none;stroke-width:0.67491567;stroke-opacity:1" />
      <path
         transform="matrix(0.26458333,0,0,0.26458333,0,280.06669)"
         inkscape:connector-curvature="0"
         id="path24"
         d="M 3.6623711,59.349576 C 3.5243048,59.12618 6.6029638,44.99209 6.8913155,44.525527 c 0.1804688,-0.292004 0.5421836,0.112359 1.2649517,1.414099 1.0832916,1.951059 2.0100678,3.224476 3.4232288,4.703615 1.628981,1.705035 3.137857,2.839683 5.452317,4.100044 0.965678,0.525869 1.76925,1.036483 1.785714,1.134697 0.01646,0.09821 -2.621851,0.79029 -5.862922,1.537945 -8.3285381,1.92124 -9.1892132,2.10034 -9.2922339,1.933649 z"
         style="fill:#333333;stroke:none;stroke-width:0.67491567;stroke-opacity:1" />
    </g>
  </g>
</svg>
