<?xml version="1.0" encoding="UTF-8" standalone="no"?>
<!-- Created with Inkscape (http://www.inkscape.org/) -->

<svg
   xmlns:dc="http://purl.org/dc/elements/1.1/"
   xmlns:cc="http://creativecommons.org/ns#"
   xmlns:rdf="http://www.w3.org/1999/02/22-rdf-syntax-ns#"
   xmlns:svg="http://www.w3.org/2000/svg"
   xmlns="http://www.w3.org/2000/svg"
   xmlns:sodipodi="http://sodipodi.sourceforge.net/DTD/sodipodi-0.dtd"
   xmlns:inkscape="http://www.inkscape.org/namespaces/inkscape"
   width="64"
   height="64"
   viewBox="0 0 16.933333 16.933333"
   version="1.1"
   id="svg29"
   inkscape:version="0.92.1 r15371"
   sodipodi:docname="minus.svg"
   inkscape:export-filename="D:\DOC\Fotojaba\icons\ipinformer\minus.svg.png"
   inkscape:export-xdpi="48.000004"
   inkscape:export-ydpi="48.000004">
  <defs
     id="defs23" />
  <sodipodi:namedview
     id="base"
     pagecolor="#ffffff"
     bordercolor="#666666"
     borderopacity="1.0"
     inkscape:pageopacity="0.0"
     inkscape:pageshadow="2"
     inkscape:zoom="5.6"
     inkscape:cx="-21.043713"
     inkscape:cy="32.099915"
     inkscape:document-units="mm"
     inkscape:current-layer="layer1"
     showgrid="false"
     units="px"
     inkscape:window-width="1024"
     inkscape:window-height="720"
     inkscape:window-x="-4"
     inkscape:window-y="-4"
     inkscape:window-maximized="1" />
  <metadata
     id="metadata26">
    <rdf:RDF>
      <cc:Work
         rdf:about="">
        <dc:format>image/svg+xml</dc:format>
        <dc:type
           rdf:resource="http://purl.org/dc/dcmitype/StillImage" />
        <dc:title />
      </cc:Work>
    </rdf:RDF>
  </metadata>
  <g
     inkscape:label="Layer 1"
     inkscape:groupmode="layer"
     id="layer1"
     transform="translate(0,-280.06669)">
    <path
       style="fill:#000000;stroke-width:0.99999994"
       d="m 982.63281,754.4043 c -1.76583,0 -14.77539,13.16076 -14.77539,14.94726 0,0.82598 3.02488,4.55103 6.72266,8.27735 3.69774,3.72631 7.29776,6.77539 8,6.77539 0.82295,0 1.27734,-1.42187 1.27734,-4 v -4 h 7 7 v -7 -7 h -7 -7 v -4 c 0,-2.48962 -0.46224,-4 -1.22461,-4 z m -1.29492,5.60156 c 0.48486,-0.0959 0.51953,0.53312 0.51953,1.68164 0,2.69692 0.0517,2.7168 7,2.7168 h 7 v 5 5 h -6.9375 -6.93554 l -0.31446,3.04687 -0.3125,3.04688 -5.25195,-5.33008 -5.25195,-5.33008 5.50195,-5.43359 c 2.99119,-2.95406 4.35903,-4.27513 4.98242,-4.39844 z"
       transform="matrix(0.26458333,0,0,0.26458333,0,-215)"
       id="path12"
       inkscape:connector-curvature="0" />
    <rect
       style="fill:#000000;stroke:none;stroke-width:1.80716467;stroke-opacity:1"
       id="rect39"
       width="16.787855"
       height="5.7263942"
       x="0.079400688"
       y="285.62274" />
  </g>
</svg>
