<?xml version="1.0" encoding="UTF-8" standalone="no"?>
<!-- Created with Inkscape (http://www.inkscape.org/) -->

<svg
   xmlns:dc="http://purl.org/dc/elements/1.1/"
   xmlns:cc="http://creativecommons.org/ns#"
   xmlns:rdf="http://www.w3.org/1999/02/22-rdf-syntax-ns#"
   xmlns:svg="http://www.w3.org/2000/svg"
   xmlns="http://www.w3.org/2000/svg"
   xmlns:sodipodi="http://sodipodi.sourceforge.net/DTD/sodipodi-0.dtd"
   xmlns:inkscape="http://www.inkscape.org/namespaces/inkscape"
   width="512"
   height="512"
   id="svg3030"
   version="1.1"
   inkscape:version="0.48.4 r9939"
   sodipodi:docname="sound.svg"
   inkscape:export-filename="D:\DOC\Fotojaba\IP\sound.png"
   inkscape:export-xdpi="5.6300001"
   inkscape:export-ydpi="5.6300001">
  <defs
     id="defs3032" />
  <sodipodi:namedview
     id="base"
     pagecolor="#ffffff"
     bordercolor="#666666"
     borderopacity="1.0"
     inkscape:pageopacity="0"
     inkscape:pageshadow="2"
     inkscape:zoom="0.7"
     inkscape:cx="499.34364"
     inkscape:cy="303.78829"
     inkscape:document-units="px"
     inkscape:current-layer="layer1"
     showgrid="false"
     inkscape:window-width="1152"
     inkscape:window-height="815"
     inkscape:window-x="-4"
     inkscape:window-y="-4"
     inkscape:window-maximized="1" />
  <metadata
     id="metadata3035">
    <rdf:RDF>
      <cc:Work
         rdf:about="">
        <dc:format>image/svg+xml</dc:format>
        <dc:type
           rdf:resource="http://purl.org/dc/dcmitype/StillImage" />
        <dc:title></dc:title>
      </cc:Work>
    </rdf:RDF>
  </metadata>
  <g
     inkscape:label="Layer 1"
     inkscape:groupmode="layer"
     id="layer1"
     transform="translate(0,-540.36218)">
    <g
       transform="matrix(0.73943877,0,0,0.73943877,19.513421,367.76523)"
       id="g3025">
      <path
         inkscape:connector-curvature="0"
         id="path3019"
         d="m 292.17971,765.86722 -104.99996,-84.06757 -83.92909,0.39583 -83.929096,0.39583 5.2e-4,-111.78571 5.2e-4,-111.78572 84.642866,-0.0609 84.64285,-0.0609 104.99999,-84.07372 105,-84.07372 0.3437,257.34892 c 0.189,141.54192 -0.1324,267.35836 -0.7143,279.5921 l -1.058,22.24318 -105,-84.06758 z"
         style="fill:#000000;fill-opacity:1;stroke:none" />
      <path
         inkscape:connector-curvature="0"
         id="path3021"
         d="m 454.63031,692.57041 c -6.90219,-10.60884 -12.8635,-20.10724 -13.24735,-21.10754 -0.39282,-1.02368 3.63063,-5.3797 9.20387,-9.96463 17.36178,-14.283 30.98372,-35.31501 38.18706,-58.96011 3.47211,-11.39729 3.9127,-15.15814 4.0104,-34.23253 0.13158,-25.69129 -2.42293,-38.20201 -11.38762,-55.77081 -8.08609,-15.84695 -15.40276,-25.375 -29.31874,-38.17999 l -11.78066,-10.84015 12.41424,-19.2522 c 6.82784,-10.5887 13.24336,-19.94029 14.25672,-20.7813 1.38902,-1.15278 4.6862,0.74617 13.39739,7.71598 32.28941,25.83473 55.45808,65.22842 62.64635,106.5176 3.41987,19.6436 2.17857,52.85071 -2.66812,71.3774 -8.65959,33.10163 -24.28825,59.48578 -50.21418,84.77116 -9.58337,9.34658 -20.23122,18.02418 -22.09283,18.00482 -0.4714,-0.004 -6.50434,-8.68887 -13.40653,-19.2977 l 0,0 z"
         style="fill:#000000;fill-opacity:1;stroke:none" />
      <path
         inkscape:connector-curvature="0"
         id="path3023"
         d="m 504.0973,769.4519 -13.08246,-20.85263 12.36817,-9.55928 c 40.63544,-31.4069 68.72114,-75.83832 80.38144,-127.16296 3.01023,-13.25 3.40633,-18.5 3.39517,-45 -0.0136,-32.38594 -0.98641,-39.24142 -9.35793,-65.94832 -7.29865,-23.28421 -20.65646,-48.70383 -36.14532,-68.78375 -8.32892,-10.79771 -29.30019,-31.26672 -41.18999,-40.2035 l -9.57051,-7.19353 12.99166,-20.36402 c 7.14541,-11.20022 13.40624,-20.83955 13.91295,-21.42074 1.02456,-1.17518 20.78383,13.92625 32.9507,25.18324 42.62639,39.43866 72.51983,92.29702 82.83091,146.4638 5.05692,26.56522 6.28256,45.01728 4.52523,68.1267 -3.06178,40.26322 -11.58527,72.37612 -27.4915,103.57636 -15.53029,30.46283 -30.98752,51.05682 -57.2639,76.29383 -14.00873,13.45461 -32.52039,28.00726 -35.324,27.7694 -0.46649,-0.0396 -6.73527,-9.45564 -13.93062,-20.9246 l 0,0 z"
         style="fill:#000000;fill-opacity:1;stroke:none" />
    </g>
  </g>
</svg>
